<svg role="img" viewBox="0 0 509 55" xmlns="http://www.w3.org/2000/svg" fill="none"><path fill="currentColor" d="M53.114 33.7h9.174V19.482H46.505L37.445 0H7.466l5.845 12.565h14.336l3.51 7.569C14.823 23.257 2.088 36.704 0 53.424h14.362a24.666 24.666 0 0 1 8.152-13.866 24.544 24.544 0 0 1 14.947-5.865l9.174 19.732h15.648l-9.169-19.726Z"/><path fill="currentColor" d="M88.345 19.434H99.8l11.41 33.784h-8.026l-2.097-6.02H86.959l-2.097 6.02h-8.026l11.509-33.784Zm11.024 21.968-5.058-15.225h-.477l-5.156 15.225h10.691Zm36.571 11.816h-7.079v-3.417h-.477c-1.81 2.755-4.149 4.132-7.11 4.132-5.535 0-9.214-4.275-9.214-10.107V28.924h7.064v13.908c0 3.01 1.719 5.08 4.588 5.08a5.197 5.197 0 0 0 3.705-1.574 5.137 5.137 0 0 0 1.444-3.74V28.925h7.072l.007 24.294Zm6.11-7.828V34.048h-3.438v-5.126h3.627l1.386-7.684h5.535l-.046 7.684h5.58v5.126h-5.58v11.04c0 2.04 1.242 3.417 3.241 3.417a12.983 12.983 0 0 0 2.536-.33v5.027a16.79 16.79 0 0 1-4.777.753c-4.914.022-8.064-3.44-8.064-8.565Zm14.273-4.32c0-7.828 5.391-12.908 13.553-12.908 8.163 0 13.561 5.08 13.561 12.907 0 7.828-5.444 12.908-13.561 12.908-8.116 0-13.553-5.08-13.553-12.908Zm19.997 0c0-4.035-2.673-6.88-6.444-6.88-3.77 0-6.488 2.845-6.488 6.88 0 4.033 2.672 6.931 6.488 6.931 3.817 0 6.444-2.913 6.444-6.932Zm10.168-12.148h7.019v3.605h.477a7.918 7.918 0 0 1 2.912-3.174 7.985 7.985 0 0 1 4.153-1.19 8.368 8.368 0 0 1 4.411 1.236 8.295 8.295 0 0 1 3.084 3.37h.477a8.354 8.354 0 0 1 3.188-3.36 8.422 8.422 0 0 1 4.498-1.156c5.391 0 9.26 4.079 9.26 9.964V53.27h-7.065V39.361c0-2.943-1.862-5.125-4.58-5.17-2.719-.046-4.68 2.137-4.68 5.17v13.856h-7.109V39.36c0-3.13-1.719-5.17-4.392-5.17s-4.588 2.04-4.588 5.17v13.856h-7.065V28.922Zm42.318 17.936c0-4.553 3.869-7.353 11.554-8.279l5.202-.617v-.993c0-2.326-1.621-3.892-4.437-3.892-2.582 0-4.346 1.423-4.301 3.839h-6.92c0-5.314 4.444-8.73 11.312-8.73 6.867 0 11.41 3.514 11.41 9.03v16.002h-7.064v-3.086h-.477c-1.515 2.423-4.346 3.703-7.829 3.703-4.99 0-8.45-2.612-8.45-6.977Zm16.756-2.943v-1.708l-5.013.617c-3.483.429-4.823 1.806-4.823 3.47 0 1.798 1.439 2.935 3.869 2.935 3.597 0 5.989-2.273 5.989-5.314h-.022Zm12.243 1.475V34.048h-3.43v-5.126h3.627l1.385-7.684h5.535l-.045 7.684h5.573v5.126h-5.581v11.04c0 2.04 1.234 3.417 3.241 3.417a12.943 12.943 0 0 0 2.529-.33v5.027a16.654 16.654 0 0 1-4.77.753c-4.907.022-8.064-3.44-8.064-8.565Zm15.514-23.963a4.22 4.22 0 0 1 .669-2.376 4.25 4.25 0 0 1 1.889-1.6 4.28 4.28 0 0 1 4.67.853 4.208 4.208 0 0 1 .968 4.62 4.24 4.24 0 0 1-1.566 1.915c-.702.47-1.528.72-2.374.72a4.09 4.09 0 0 1-3.032-1.146 4.034 4.034 0 0 1-1.224-2.986Zm.758 7.526h7.064v24.265h-7.064V28.953Zm10.319 12.117c0-7.828 5.399-12.908 13.561-12.908 8.162 0 13.553 5.08 13.553 12.907 0 7.828-5.444 12.908-13.553 12.908-8.109 0-13.561-5.08-13.561-12.908Zm20.005 0c0-4.035-2.673-6.88-6.444-6.88-3.77 0-6.496 2.845-6.496 6.88 0 4.033 2.673 6.931 6.496 6.931 3.824 0 6.444-2.913 6.444-6.932Zm10.214-12.148h7.065v3.417h.477c1.817-2.754 4.156-4.124 7.109-4.124 5.543 0 9.215 4.267 9.215 10.1v14.902h-7.064V39.316c0-3.01-1.719-5.08-4.543-5.08a5.2 5.2 0 0 0-3.708 1.574 5.141 5.141 0 0 0-1.449 3.74v13.667h-7.064l-.038-24.295Zm52.123-9.52h7.92v13.096h14.129V19.402h7.927v33.785h-7.927v-14.3h-14.129v14.3h-7.92V19.402Zm33.225 21.638c0-7.827 5.398-12.907 13.561-12.907 8.162 0 13.553 5.08 13.553 12.907s-5.444 12.908-13.553 12.908c-8.11 0-13.561-5.096-13.561-12.908Zm20.004 0c0-4.034-2.673-6.879-6.443-6.879-3.771 0-6.497 2.845-6.497 6.88 0 4.033 2.673 6.923 6.497 6.923 3.823 0 6.443-2.875 6.443-6.924Zm33.716 12.147h-7.064V49.77h-.507c-1.818 2.747-4.157 4.124-7.118 4.124-5.535 0-9.207-4.267-9.207-10.107V28.893h7.065V42.83c0 3.01 1.718 5.08 4.542 5.08a5.208 5.208 0 0 0 3.708-1.574 5.124 5.124 0 0 0 1.449-3.74V28.894h7.132v24.294Zm3.234-8.097h6.254c0 2.558 2.098 4.312 5.58 4.312 2.673 0 4.437-1.137 4.437-3.01 0-2.259-2.528-2.515-5.489-2.8-4.482-.475-10.494-1.182-10.494-7.444 0-4.982 4.338-8.12 10.88-8.12 6.542 0 11.267 3.183 11.267 8.21h-6.444c-.053-2.182-2.006-3.56-4.823-3.56-2.582 0-4.346 1.145-4.346 2.898 0 2.258 3.029 2.416 6.398 2.8 4.49.52 9.98 1.61 9.98 7.398 0 5.17-4.347 8.279-11.555 8.279-7.208 0-11.645-3.38-11.645-8.964Zm25.395-4.238c0-7.594 5.58-12.72 13.462-12.72s13.121 5.171 13.121 12.795a16.07 16.07 0 0 1-.09 2.138H489.61c.576 3.417 3.029 5.644 6.497 5.644a6.418 6.418 0 0 0 3.412-.825 6.363 6.363 0 0 0 2.456-2.494l6.012 1.506c-1.514 4.365-6.247 7.021-12.168 7.021-7.927.03-13.507-5.238-13.507-13.065Zm19.375-2.137a6.005 6.005 0 0 0-2.013-3.854 6.08 6.08 0 0 0-4.097-1.505c-3.195 0-5.436 2.13-6.012 5.359h12.122Z"/><path fill="currentColor" d="M350.572 53.97c4.454 0 8.064-3.588 8.064-8.015 0-4.427-3.61-8.015-8.064-8.015-4.453 0-8.063 3.588-8.063 8.015 0 4.427 3.61 8.015 8.063 8.015Z"/></svg>
